<svg xmlns="http://www.w3.org/2000/svg" width="900" height="520" viewBox="0 0 900 520">
  <defs>
    <filter id="blur18" x="-20%" y="-20%" width="140%" height="140%">
      <feGaussianBlur stdDeviation="18" />
    </filter>
    <filter id="shadow" x="-20%" y="-20%" width="140%" height="140%">
      <feDropShadow dx="0" dy="12" stdDeviation="14" flood-color="#232129" flood-opacity="0.10" />
    </filter>
  </defs>
  <rect x="0" y="0" width="900" height="520" rx="26" fill="#f3efe6" />
  <g filter="url(#blur18)" opacity="0.95">
    <ellipse cx="220" cy="140" rx="310" ry="210" fill="#6f7f6a" opacity="0.14" />
    <ellipse cx="720" cy="140" rx="300" ry="200" fill="#d6bb7a" opacity="0.16" />
    <ellipse cx="560" cy="390" rx="360" ry="240" fill="#7c7af0" opacity="0.10" />
  </g>

  <!-- pause / choice (a dot + split paths) -->
  <g filter="url(#shadow)">
    <rect x="180" y="170" width="540" height="200" rx="24" fill="#fbfaf7" fill-opacity="0.90" stroke="#232129" stroke-opacity="0.10"/>
  </g>
  <circle cx="450" cy="260" r="10" fill="#232129" fill-opacity="0.18"/>
  <path d="M450 260c-110-30-210-22-300 24" stroke="#6f7f6a" stroke-opacity="0.22" stroke-width="12" stroke-linecap="round" fill="none"/>
  <path d="M450 260c120-34 230-30 320 14" stroke="#d6bb7a" stroke-opacity="0.22" stroke-width="12" stroke-linecap="round" fill="none"/>

  <!-- therapist silhouette hint -->
  <g opacity="0.96" transform="translate(410,330)">
    <ellipse cx="56" cy="28" rx="26" ry="30" fill="#f2e2d6"/>
    <path d="M56 62c-28 10-40 28-42 66h84c-2-38-14-56-42-66Z" fill="#7c7af0" opacity="0.10"/>
    <path d="M32 30c2-18 18-32 38-32 16 0 30 10 34 22-8-8-18-12-30-12-14 0-28 6-42 22Z" fill="#3a2a2a" opacity="0.30"/>
  </g>
</svg>

